<?xml version="1.0" encoding="utf-8"?>
<!-- Generator: Adobe Illustrator 16.0.0, SVG Export Plug-In . SVG Version: 6.00 Build 0)  -->
<!DOCTYPE svg PUBLIC "-//W3C//DTD SVG 1.1//EN" "http://www.w3.org/Graphics/SVG/1.1/DTD/svg11.dtd">
<svg version="1.1" id="Camada_1" xmlns="http://www.w3.org/2000/svg" xmlns:xlink="http://www.w3.org/1999/xlink" x="0px" y="0px"
	 width="800px" height="800px" viewBox="0 0 800 800" enable-background="new 0 0 800 800" xml:space="preserve">
<g>
	<path fill="#FFFFFF" d="M73.959,600H400V18.225c0,0-346.447,11.347-387.203,360.759C6.152,435.952,73.959,600,73.959,600z"/>
	<path fill="#EFEEDF" d="M400,600h331.387c0,0,60.832-164.778,52.71-221.017C731.425,14.259,400,18.225,400,18.225V600z"/>
</g>
<path fill-rule="evenodd" clip-rule="evenodd" fill="#B3B3A7" d="M53.515,600C122.678,720,251.943,799.703,400,799.703
	C548.058,799.703,677.324,720,746.486,600H53.515z"/>
<g>
	<defs>
		<circle id="SVGID_7_" cx="400" cy="399.881" r="390"/>
	</defs>
	<clipPath id="SVGID_2_">
		<use xlink:href="#SVGID_7_"  overflow="visible"/>
	</clipPath>
	<g clip-path="url(#SVGID_2_)">
		<g>
			<g>
				<path fill="#E2B69E" d="M175.037-55.988c-0.23,9.225,1.531,14.605,2.413,20.199c0.431,2.714-3.013,4.183-6.267,4.22
					c-0.67,0.076-3.092-0.09-3.828,5.875c-0.162,1.331-1.373,3.962-2.027,4.699c-6.802,5.823-4.457,16.693-10.79,16.468
					c-2.613-0.092-6.007-0.887-15.836-3.181c-5.278-1.235-15.628,19.316-16.717,29.136c-11.146-7.043-38.903-9.646-50.996-6.377
					c8.61-15.894,16.85-37.613,16.26-55.198c-0.354-10.629-6.14-21.989-6.745-32.411c2.766-34.141,21.787-60.127,55.93-57.36
					c31.777,2.575,45.991,14.566,42.688,64.604C178.908-62.112,176.637-59.199,175.037-55.988z"/>
				<path fill="#CCA393" d="M138.702-7.521c-23.749-5.604-24.252-24.743-26.251-28.462c2.067,9.065,7.127,21.955-0.842,40.084
					c9.4-15.872,19.69-13.771,19.502-5.125C132.832-3.934,136.525-8.092,138.702-7.521z"/>
			</g>
			<g>
				<path fill="#93908D" d="M17.385,652.96c0,0-3.186,2.502-7.798,2.91c-4.622,0.409-28.978-8.45-47.896-27.882
					c-18.924-19.441-30.459-42.443-30.459-42.443s0.614-2.618,2.107-2.886c1.492-0.264,21.1,34.704,37.652,47.782
					c16.55,13.079,28.916,19.33,34.832,21.078C11.735,653.261,17.385,652.96,17.385,652.96z"/>
				<path fill="#FFFFFF" d="M-12.174,595.185c0,0,8.375,19.2,17.066,29.611c11.313,13.553,15.59,22.333,12.877,27.341
					c-2.718,5.01-25.559,0.246-49.552-22.063c-22.969-21.357-34.785-46.751-34.785-46.751s0.304-8.585,10.097-15.079
					c7.248-4.796,11.496-5.233,11.496-5.233s4.779,16.085,12.915,23.788C-23.922,594.492-12.174,595.185-12.174,595.185z"/>
			</g>
			<path fill="#4E2572" d="M-52.872,563.065c0,0,10.952,35.362,49.708,45.226c26.287-23.607,107.696-108.04,119.473-133.438
				c11.038-23.799,14.093-250.615,14.093-250.615l-76.79-25.686c0,0-27.382,42.381-21.373,94.057
				c3.359,28.869,19.17,144.202,13.664,158.8C39.211,469.148-52.872,563.065-52.872,563.065z"/>
			<path fill="#3B1C56" d="M33.508,301.287C35.424,317.826,80,399.762,123.18,425.494c4.521-86.718,7.222-201.07,7.222-201.07
				l-76.79-25.684c0,0-20.537,31.158-24.65,68.016C31.572,281.67,28.293,279.564,33.508,301.287z"/>
			<g>
				<path fill="#93908D" d="M307.9,631.652c0,0,0.152,4.048-2.229,8.021c-2.389,3.975-23.877,18.468-50.72,22.346
					c-26.849,3.875-52.237-0.318-52.237-0.318s-1.758-2.039-1.096-3.399c0.662-1.364,40.478,3.335,60.789-2.36
					c20.313-5.699,32.636-12.031,37.527-15.786C304.822,636.396,307.9,631.652,307.9,631.652z"/>
				<path fill="#FFFFFF" d="M249.419,618.78c0,0,14.821,7.325,28.354,6.415c17.614-1.182,27.23,0.521,29.688,5.666
					c2.454,5.141-14.832,20.815-46.982,27.102c-30.776,6.025-58.266,0.652-58.266,0.652s-6.771-5.296-6.262-17.033
					c0.381-8.685,2.525-12.376,2.525-12.376s15.82,5.593,26.838,3.54C236.322,630.685,249.419,618.78,249.419,618.78z"/>
			</g>
			<path fill="#4E2572" d="M196.967,629.82c1.787,14.288,65.293-0.529,64.133-11.229c-4.979-45.994-21.334-180.967-27.074-204.957
				c-8.664-36.204-137.682-202.679-137.682-202.679l-61.434,9.097c0,0-14.762,53.822,2.228,83.641
				c14.384,25.254,116.202,119.99,125.479,142.091C171.023,465.82,191.443,585.608,196.967,629.82z"/>
			<path fill="#CE9D93" d="M300.211,219.211c0,0,0.951-7.008,0.773-14.244c-0.743-3.679-1.426-6.745-7.582-9.926
				c-6.307-3.262-9.429-6.545-18.653-10.082c-39.218-9.948-53.168-33.278-90.361-40.221c-25.522-51.758-57.536-121.24-57.536-121.24
				L85.154,55.473c0,0,38.873,74.801,77.409,119.892c43.458,23.345,82.812,13.645,103.513,25.604
				c4.025,9.537,3.693,7.519,5.924,11.505c11.217,8.278,7.482-0.643,10.773,0.21c3.315-0.15,6.396,2.39,6.396,2.39L300.211,219.211z
				"/>
			<path fill="#FFCD61" d="M147.339,272.161c-2.166-76.663,18.313-142.731,9.992-196.354c-6.981-44.979-36.804-73.909-55.429-76.082
				C69.623-4.041,56.867,15.992,48.541,36.873c-11.713,29.371-4.518,64.195-14.557,135.283
				c-9.611,68.049-17.563,88.136-10.674,92.202C74.496,290.351,147.339,272.161,147.339,272.161z"/>
			<path fill="#E2B69E" d="M295.66,219.776c0,0,0.949-7.007,0.771-14.243c-0.742-3.681-1.429-6.746-7.581-9.928
				c-6.307-3.259-9.034-6.758-19.677-8.619c-40.42-7.133-55.814-29.888-90.283-34.574c-29.953-51.703-71.715-123.67-71.715-123.67
				L75.309,60.381c0,0,43.008,68.44,73.462,116.309c0.963,1.515,0.856,2.526,1.673,3.344c0.832,0.829,1.91,1.266,2.543,1.523
				c41.865,16.932,86.828,14.888,108.537,19.98c4.026,9.535,3.693,7.518,5.924,11.503c11.215,8.277,7.481-0.642,10.771,0.209
				c3.319-0.154,6.398,2.392,6.398,2.392L295.66,219.776z"/>
			<path fill="#4E2572" d="M97.662,121.354c6.722,12.816,63.438-15.307,56.633-28.076c-13.766-25.831-20.914-41.206-28.567-54.567
				C115.793,21.369,101.908,7.932,80.6,17.666c-19.238,8.789-16.012,32.829-8.59,47.023
				C77.031,74.293,86.958,100.942,97.662,121.354z"/>
			<path fill="#4E2572" d="M70.989,7.003c0,0,35.483-12.468,63.69,17.382c-2.055-5.154-1.316-11.387-0.383-15.543
				c-5.486-4.275-11.377-9.577-27.824-14.307C92.598-9.453,84.1-8.545,76.986-5.323C75.309-2.033,70.989,7.003,70.989,7.003z"/>
		</g>
		<g>
			<g>
				<g>
					<polygon fill="#FFFFFF" points="748.951,483.736 507.35,593.706 427.071,418.002 668.711,307.523 					"/>
					<path fill="#F47B50" d="M668.711,307.709l-241.64,110.48l18.731,40.955L687.438,348.67L668.711,307.709z M595.807,375.706
						l-7.488-16.383l16.388-7.495l7.489,16.386L595.807,375.706z M624.482,362.596l-7.492-16.381l16.383-7.491l7.492,16.384
						L624.482,362.596z M653.148,349.49l-7.489-16.382l16.386-7.492l7.487,16.383L653.148,349.49z"/>
					<path fill="#B3B3A7" d="M687.438,348.67L445.801,459.148l61.828,134.646c49.383-22.487,241.6-109.967,241.6-109.967
						L687.438,348.67z M579.387,529.146l-59.104-22.012l0.309-0.82l-0.824-0.307l22.018-59.107l14.773,5.509l-16.811,45.145
						l45.146,16.821L579.387,529.146z M608.243,518.722l-15.771,7.212l-7.428-99.67l15.775-7.212L608.243,518.722z M653.652,495.195
						l-14.776-5.501l16.815-45.152l-45.144-16.817l5.5-14.776l59.103,22.017l-0.309,0.822l0.826,0.303L653.652,495.195z"/>
				</g>
			</g>
			<path fill="#717180" d="M542.797,590.586c1.665,3.637,2.947,7.383,3.872,11.188L779.293,495.49l-9.796-21.428L536.839,580.358
				C539.115,583.529,541.127,586.934,542.797,590.586z"/>
			<path fill="#717180" d="M335.338,219.797l-48.618-18.211l-8.528,22.086l39.84,14.941l156.293,336.091
				c3.164-2.267,6.569-4.279,10.237-5.956c2.655-1.215,5.415-2.25,8.196-3.076c1.003-0.296,2.008-0.498,3.014-0.74L335.338,219.797z
				"/>
			<path fill="#272730" d="M546.387,589.021c-10.969-24.002-39.326-34.563-63.326-23.586c-24,10.97-34.563,39.322-23.593,63.321
				c10.976,24,39.328,34.565,63.332,23.589C546.799,641.375,557.362,613.021,546.387,589.021z M513.654,632.351
				c-12.959,5.927-28.264,0.218-34.186-12.736c-5.926-12.956-0.223-28.262,12.732-34.183c12.957-5.926,28.263-0.219,34.184,12.734
				C532.314,611.124,526.611,626.429,513.654,632.351z"/>
			<circle fill="#717180" cx="502.707" cy="608.836" r="27.59"/>
			<circle fill="#272730" cx="502.707" cy="608.836" r="13.455"/>
			<path fill="#8D8D99" d="M271.135,212.75c0,6.645,5.383,12.025,12.023,12.025c6.642,0,12.023-5.381,12.023-12.025
				c0-6.643-5.382-12.024-12.023-12.024C276.518,200.726,271.135,206.107,271.135,212.75z"/>
		</g>
		<g>
			<g>
				<polygon fill-rule="evenodd" clip-rule="evenodd" fill="#FDB813" points="427.428,418.855 644.835,318.219 585.437,189.896 
					513.057,318.689 368.029,290.534 				"/>
				<polygon fill-rule="evenodd" clip-rule="evenodd" fill="#FFCD61" points="427.428,418.855 644.835,318.219 526.264,295.196 
					486.603,313.555 486.603,313.553 				"/>
				<polygon fill-rule="evenodd" clip-rule="evenodd" fill="#F47B50" points="585.437,189.896 518.741,330.975 368.029,290.534 				
					"/>
				<polygon fill-rule="evenodd" clip-rule="evenodd" fill="#FFBE33" points="585.437,189.896 515.158,323.239 368.029,290.534 				
					"/>
			</g>
			<g>
				<polygon opacity="0.2" fill-rule="evenodd" clip-rule="evenodd" points="651.854,303.432 431.586,410.26 379.445,285.249 
					589.604,182.659 				"/>
				<g>
					<polygon fill-rule="evenodd" clip-rule="evenodd" fill="#FDB813" points="434.445,404.07 651.854,303.432 592.452,175.11 
						520.07,303.907 375.049,275.75 					"/>
					<polygon fill-rule="evenodd" clip-rule="evenodd" fill="#FFCD61" points="434.445,404.07 651.854,303.432 533.283,280.411 
						493.623,298.768 493.623,298.765 					"/>
					<polygon fill-rule="evenodd" clip-rule="evenodd" fill="#F47B50" points="592.452,175.11 525.76,316.189 375.049,275.75 					
						"/>
					<polygon fill-rule="evenodd" clip-rule="evenodd" fill="#FFBE33" points="592.452,175.11 522.178,308.454 375.049,275.75 					
						"/>
				</g>
			</g>
			<g>
				<polygon opacity="0.2" fill-rule="evenodd" clip-rule="evenodd" points="657.864,290.748 437.603,397.577 384.831,271.221 
					595.615,169.971 				"/>
				<g>
					<polygon fill-rule="evenodd" clip-rule="evenodd" fill="#FDB813" points="440.455,391.389 657.864,290.748 598.465,162.43 
						526.084,291.223 381.057,263.063 					"/>
					<polygon fill-rule="evenodd" clip-rule="evenodd" fill="#FFCD61" points="440.455,391.389 657.864,290.748 539.292,267.726 
						499.631,286.088 499.631,286.082 					"/>
					<polygon opacity="0.2" fill-rule="evenodd" clip-rule="evenodd" points="598.465,162.43 531.768,303.508 381.057,263.063 					
						"/>
					<polygon fill-rule="evenodd" clip-rule="evenodd" fill="#FFBE33" points="598.465,162.43 528.188,295.77 381.057,263.063 					
						"/>
				</g>
			</g>
		</g>
	</g>
</g>
<path fill="#E5E4D3" d="M400.003-0.237c-220.915,0-400.002,179.086-400.002,400c0,220.91,179.087,399.998,400.002,399.998
	C620.913,799.761,800,620.673,800,399.763C800,178.849,620.913-0.237,400.003-0.237z M400.003,763.062
	c-200.653,0-363.301-162.652-363.301-363.299c0-200.645,162.647-363.307,363.301-363.307c200.646,0,363.297,162.662,363.297,363.307
	C763.3,600.409,600.648,763.062,400.003,763.062z"/>
</svg>
