<?xml version="1.0" encoding="UTF-8" standalone="no"?>
<svg
   xmlns:dc="http://purl.org/dc/elements/1.1/"
   xmlns:cc="http://creativecommons.org/ns#"
   xmlns:rdf="http://www.w3.org/1999/02/22-rdf-syntax-ns#"
   xmlns:svg="http://www.w3.org/2000/svg"
   xmlns="http://www.w3.org/2000/svg"
   xmlns:sodipodi="http://sodipodi.sourceforge.net/DTD/sodipodi-0.dtd"
   xmlns:inkscape="http://www.inkscape.org/namespaces/inkscape"
   version="1.1"
   width="789"
   height="218"
   id="svg92"
   viewBox="0 0 789 218"
   sodipodi:docname="Logo Praia Cambio &amp; turismo.svg"
   inkscape:version="0.92.5 (2060ec1f9f, 2020-04-08)">
  <metadata
     id="metadata98">
    <rdf:RDF>
      <cc:Work
         rdf:about="">
        <dc:format>image/svg+xml</dc:format>
        <dc:type
           rdf:resource="http://purl.org/dc/dcmitype/StillImage" />
        <dc:title></dc:title>
      </cc:Work>
    </rdf:RDF>
  </metadata>
  <defs
     id="defs96" />
  <sodipodi:namedview
     pagecolor="#ffffff"
     bordercolor="#666666"
     borderopacity="1"
     objecttolerance="10"
     gridtolerance="10"
     guidetolerance="10"
     inkscape:pageopacity="0"
     inkscape:pageshadow="2"
     inkscape:window-width="1366"
     inkscape:window-height="768"
     id="namedview94"
     showgrid="false"
     showguides="true"
     inkscape:guide-bbox="true"
     inkscape:zoom="0.54535033"
     inkscape:cx="232.47725"
     inkscape:cy="409.59392"
     inkscape:window-x="0"
     inkscape:window-y="0"
     inkscape:window-maximized="1"
     inkscape:current-layer="svg92" />
  <path
     inkscape:connector-curvature="0"
     id="path2"
     style="fill:#182f5c;fill-rule:evenodd;stroke-width:1.87161648"
     d="m 773.81476,190.03633 c 6.32191,0 11.44741,5.44554 11.44741,12.16262 0,6.71707 -5.1255,12.16263 -11.44741,12.16263 -6.3221,0 -11.44762,-5.44556 -11.44762,-12.16263 0,-6.71708 5.12552,-12.16262 11.44762,-12.16262 z m -207.30818,23.78892 v -19.14516 h -4.04407 v -4.20198 h 12.22114 v 4.20198 h -4.10326 v 19.14516 z m 26.90966,-23.34714 h 4.07383 v 14.56448 c 0,0.0843 0,0.15259 0,0.20506 0,0.0531 0,0.10025 0,0.1422 0,0.0634 0,0.12121 0,0.17401 0,0.0531 0,0.0999 0,0.14218 0,0.44179 0.0202,0.87373 0.0596,1.29488 0.0391,0.42172 0.15799,0.83225 0.35607,1.23256 0.29761,0.58956 0.69907,1.06916 1.2044,1.43726 0.5055,0.36846 1.07583,0.5529 1.70989,0.5529 0.0395,0 0.0741,0 0.10417,0 0.0298,0 0.055,0 0.0746,0 0.51567,-0.0422 1.00575,-0.20506 1.47149,-0.48944 0.46628,-0.28436 0.83796,-0.66885 1.11541,-1.15345 0.29742,-0.50527 0.47048,-1.04276 0.51986,-1.61146 0.05,-0.56834 0.0746,-1.14731 0.0746,-1.73687 0,-0.0217 0,-0.0482 0,-0.0793 0,-0.0312 0,-0.0581 0,-0.0793 v -14.59574 h 4.07383 v 14.5645 c 0,1.17912 -0.0895,2.30114 -0.26764,3.3649 -0.17868,1.06298 -0.62481,2.05826 -1.33823,2.98523 -0.71341,0.90557 -1.58587,1.6325 -2.61686,2.17981 -1.03026,0.54731 -2.10101,0.82144 -3.21116,0.82144 -0.0988,0 -0.20336,-0.006 -0.31196,-0.0154 -0.10952,-0.009 -0.21351,-0.0154 -0.31231,-0.0154 -0.95181,-0.10475 -1.8684,-0.41015 -2.75069,-0.91657 -0.88208,-0.50525 -1.63054,-1.12646 -2.24499,-1.86361 -0.7933,-0.96845 -1.28828,-1.98996 -1.48656,-3.06413 -0.1981,-1.07399 -0.29743,-2.22185 -0.29743,-3.44401 z m 35.68121,23.34714 v -23.34714 h 6.36314 c 1.05059,0.0426 2.05689,0.14816 3.01831,0.31601 0.96146,0.1686 1.85863,0.62178 2.69133,1.35855 0.79274,0.69545 1.41701,1.55357 1.87259,2.57509 0.45648,1.0215 0.68399,2.07967 0.68399,3.17506 0,0.27394 -0.0195,0.55831 -0.0591,0.8531 -0.0396,0.29477 -0.0895,0.58957 -0.14873,0.88491 -0.15849,0.63105 -0.37675,1.24183 -0.65419,1.83198 -0.27747,0.58937 -0.59505,1.09482 -0.95129,1.51636 -0.53529,0.61039 -1.13013,1.09539 -1.78434,1.45305 -0.65421,0.35806 -1.35782,0.62119 -2.11136,0.7902 l 5.94733,8.59283 h -5.02548 l -5.70856,-8.94067 h -0.0597 v 8.94067 z m 4.07383,-12.22628 h 2.22975 c 0.17904,0.0213 0.36697,0.0262 0.56506,0.0154 0.1981,-0.0105 0.40656,-0.0262 0.62482,-0.0476 0.37622,-0.0628 0.74844,-0.16302 1.11486,-0.30017 0.36696,-0.13676 0.67891,-0.34244 0.9362,-0.6158 0.33719,-0.33741 0.58992,-0.72132 0.75882,-1.1527 0.1683,-0.43272 0.25257,-0.89032 0.25257,-1.37494 0,-0.50526 -0.0988,-0.99527 -0.29743,-1.46889 -0.19811,-0.47401 -0.49569,-0.85848 -0.89191,-1.15325 -0.4757,-0.37891 -0.95636,-0.60541 -1.44224,-0.67927 -0.48536,-0.0735 -1.0161,-0.11046 -1.59097,-0.11046 h -2.25953 z m 29.82342,12.22628 v -23.34714 h 4.07383 v 23.34714 z m 23.37112,-6.57159 h 4.25232 c 0,0.94819 0.30685,1.67991 0.9213,2.19618 0.61464,0.51568 1.32805,0.7738 2.14134,0.7738 0.77295,0 1.44151,-0.27898 2.00678,-0.83727 0.56504,-0.55832 0.84722,-1.25842 0.84722,-2.10109 0,-1.15829 -0.34699,-2.00096 -1.0408,-2.52705 -0.69327,-0.52669 -1.4566,-0.93721 -2.2893,-1.23199 -0.0794,-0.0422 -0.16324,-0.0787 -0.25276,-0.11057 -0.0893,-0.0317 -0.17358,-0.0585 -0.25274,-0.0793 -0.0592,-0.0208 -0.11383,-0.0413 -0.16323,-0.0628 -0.05,-0.0211 -0.10441,-0.0421 -0.1636,-0.0634 -0.65477,-0.23131 -1.26887,-0.48944 -1.84372,-0.7738 -0.57489,-0.28437 -1.11997,-0.7005 -1.63562,-1.24781 -0.45561,-0.50545 -0.82728,-1.08498 -1.1149,-1.738 -0.28726,-0.65247 -0.48081,-1.32673 -0.58012,-2.02181 0,-0.12621 -0.003,-0.24713 -0.0144,-0.36308 -0.0105,-0.11593 -0.0144,-0.23671 -0.0144,-0.36366 0,-1.91607 0.64387,-3.50091 1.93269,-4.75428 1.28827,-1.25343 2.80515,-1.87964 4.54938,-1.87964 1.70462,0 3.20606,0.64743 4.5047,1.94251 1.29861,1.29544 1.93777,2.85945 1.9178,4.69141 l -4.19221,-0.0311 c -0.0202,-0.71591 -0.27745,-1.29565 -0.77314,-1.738 -0.49626,-0.44179 -1.06077,-0.66327 -1.69483,-0.66327 -0.65476,0 -1.17971,0.23187 -1.57608,0.69508 -0.39693,0.46359 -0.59503,1.03232 -0.59503,1.70619 0,0 0,0.006 0,0.0154 0,0.009 0,0.0154 0,0.0154 0,0 0,0.006 0,0.0154 0,0.009 0,0.0153 0,0.0153 -0.0195,0.75779 0.21825,1.33751 0.71339,1.73781 0.49608,0.39974 1.04117,0.71593 1.63566,0.94724 0.0596,0.0211 0.12923,0.0481 0.20845,0.0798 0.0788,0.0311 0.14888,0.0572 0.20807,0.0787 0.0987,0.0421 0.1981,0.0787 0.29742,0.11045 0.0988,0.0319 0.19811,0.0684 0.29706,0.11057 0.6742,0.23133 1.32313,0.49004 1.94813,0.77438 0.62371,0.28437 1.20438,0.66827 1.73914,1.1527 0.79311,0.65304 1.37724,1.41643 1.75455,2.29035 0.37622,0.87372 0.5647,1.87941 0.5647,3.01687 0,2.08527 -0.70415,3.83352 -2.11081,5.24509 -1.40775,1.41083 -3.08317,2.11635 -5.02547,2.11635 -1.86334,0 -3.51349,-0.67426 -4.951,-2.02237 -1.437,-1.34737 -2.15549,-3.04333 -2.15549,-5.08633 z m 33.71857,6.57159 v -23.34714 h 5.56038 l 5.88759,17.85009 5.9762,-17.85009 h 5.53097 v 23.34714 h -4.0733 v -17.50224 l -5.67966,17.50224 h -3.44904 l -5.67932,-17.50224 v 17.50224 z m 60.58049,-17.05988 c 0.22224,-0.70879 0.18065,-1.25456 -0.12451,-1.63788 -0.20845,-0.18754 -0.46901,-0.28108 -0.77988,-0.28166 -0.22642,-9.7e-4 -0.48062,0.0495 -0.76171,0.14833 -0.66601,0.23557 -1.26357,0.63434 -1.79069,1.1942 l -1.66651,1.7708 -6.92438,-1.75865 c -0.11056,-0.0379 -0.21462,-0.008 -0.31195,0.0879 l -1.33293,1.41585 c -0.0769,0.0822 -0.10766,0.18095 -0.0937,0.29921 0.021,0.11753 0.0797,0.20663 0.17758,0.26623 l 5.2891,3.08595 -2.69657,2.86601 -2.02076,-0.58669 c -0.0144,-0.008 -0.0412,-0.0105 -0.0828,-0.0105 -0.0978,0 -0.17704,0.0328 -0.2393,0.0995 l -0.99958,1.07302 c -0.07,0.0879 -0.10157,0.18097 -0.0932,0.27609 0.0132,0.11817 0.058,0.20292 0.13416,0.25484 l 2.62412,2.09067 1.96813,2.78787 c 0.0628,0.0813 0.14562,0.12964 0.24965,0.14373 h 0.0217 c 0.0963,0 0.17613,-0.0328 0.23878,-0.0989 l 1.00011,-1.06202 c 0.0902,-0.10335 0.11792,-0.21818 0.0828,-0.3434 l -0.55217,-2.14583 2.69748,-2.86604 2.90503,5.62054 c 0.0417,0.0963 0.11534,0.15529 0.21934,0.17729 0.0204,0.008 0.0441,0.0105 0.0725,0.0105 0.0834,0 0.1498,-0.0224 0.19719,-0.0662 l 1.3335,-1.063 c 0.11804,-0.10288 0.15959,-0.22437 0.12501,-0.36482 l -1.66649,-7.69978 1.67685,-1.78106 c 0.52747,-0.56121 0.90226,-1.19552 1.12415,-1.90256 z" />
  <g
     id="Layer1001"
     transform="matrix(1.3160934,0,0,1.3160934,-170.28846,-8.867793)">
    <path
       inkscape:connector-curvature="0"
       id="path4"
       style="fill:#182f5c;fill-rule:evenodd"
       d="m 233.2705,11.7635 c 40.6899,0 74.1737,30.8454 78.3479,70.4286 0.3298,3.1289 0.3636,3.2004 3.7134,4.9186 0.8025,0.4117 1.59,0.8453 2.3639,1.3211 1.4873,0.9143 2.9424,1.9717 4.2851,3.089 1.0376,0.8638 2.1662,1.8716 3.0572,2.8885 2.6871,3.0648 0.9769,7.1545 -3.0793,7.4849 -0.6273,0.0511 -1.2084,0.1446 -1.8143,0.3236 -0.9466,0.2796 -1.9408,0.7324 -2.7765,1.2599 -0.9174,0.579 -1.7349,1.3058 -2.5493,2.0179 -4.4289,3.8705 -4.4371,1.5112 -5.6035,5.8643 -2.7356,10.2098 -7.532,19.8734 -13.764,28.424 0.9825,0.7169 1.7108,1.8546 2.1693,3.2061 0.621,1.8304 1.1088,3.8617 1.3563,5.7792 0.2569,1.9904 0.2734,4.1629 -0.0402,6.1487 -0.2641,1.6731 -0.8114,3.5331 -2.1257,4.6898 -0.8125,0.7154 -1.8481,1.1124 -2.9344,1.1011 -2.2664,-0.0236 -3.1463,-1.3022 -4.2162,-2.8723 -0.5569,-0.8173 -1.2778,-1.6666 -2.0522,-2.2817 -0.8731,-0.6933 -1.9998,-1.2372 -3.0484,-1.5988 -0.9265,-0.3195 -1.6933,-0.4432 -2.6699,-0.4718 -0.4078,-0.0122 -0.8147,-0.007 -1.2213,0.0127 -13.189,9.9486 -29.6043,15.849 -47.3979,15.849 -42.2179,0 -76.6786,-33.2051 -78.6954,-74.9236 -0.224,-0.3042 -0.473,-0.6567 -0.7466,-1.0551 -1.2032,-1.7531 -2.8837,-4.392 -3.8799,-8.0039 -3.4514,-12.5065 1.1431,-27.0864 13.6513,-31.627 0.7185,-1.3569 1.4708,-2.6931 2.2649,-4.0012 -0.7804,0.0647 -1.5628,0.1582 -2.3392,0.2816 -2.7209,0.4324 -5.365,1.2318 -6.4264,1.4094 -1.0614,0.1778 -0.5396,-0.2669 0.5901,-1.0167 1.1292,-0.7497 2.867,-1.8049 3.5438,-2.3831 0.6772,-0.5782 0.2938,-0.678 -1.4019,-0.6276 -1.6958,0.0505 -4.704,0.2521 -7.504,1.0532 -2.8003,0.8009 -5.3913,2.2003 -7.0799,3.1559 -1.689,0.9557 -2.4751,1.4667 -2.4558,1.1757 0.019,-0.2915 0.8436,-1.3847 1.9623,-2.5674 1.1182,-1.1831 2.5315,-2.4564 3.1483,-3.0893 0.6173,-0.6332 0.4387,-0.6258 -0.8303,-0.1866 -1.269,0.439 -3.6289,1.3107 -5.8025,2.354 -2.1739,1.0429 -4.1626,2.2578 -5.1735,2.9148 -1.0104,0.6573 -1.0433,0.7563 -0.6613,-0.477 0.3814,-1.2338 1.1779,-3.8004 3.6782,-7.2742 7.7645,-10.7894 19.929,-13.4229 32.3937,-9.9029 1.7123,0.4834 3.2481,1.0795 4.63,1.7459 1.2037,-1.2673 2.4512,-2.4917 3.736,-3.6768 -0.6638,-0.5079 -1.2193,-0.8986 -1.5602,-1.157 -0.7489,-0.5674 -0.4642,-0.4954 0.1787,-0.3536 0.598,0.1321 1.5063,0.3241 2.3791,0.6071 0.4291,-0.3825 0.8618,-0.7605 1.2994,-1.1337 -0.4628,-0.5635 -0.9993,-1.178 -1.5727,-1.7689 -1.3053,-1.3461 -2.8012,-2.5715 -4.6625,-3.5203 -1.8608,-0.9483 -4.0863,-1.6201 -4.9643,-1.9995 -0.8785,-0.3791 -0.4089,-0.4665 0.3556,-0.5266 0.7648,-0.0601 1.8248,-0.0941 2.8372,-0.0232 1.0123,0.0706 1.9762,0.245 2.4855,0.2044 0.5093,-0.0411 0.5635,-0.2972 -0.2504,-0.9128 -0.8144,-0.6159 -2.4963,-1.5911 -4.2451,-2.2533 -1.7482,-0.6618 -3.5637,-1.0101 -4.4277,-1.2142 -0.8643,-0.2042 -0.7787,-0.2638 0.864,-1.0799 1.6431,-0.8164 4.8426,-2.3894 9.7564,-1.7374 6.2919,0.8345 10.8926,3.5109 14.1514,7.3669 11.8943,-7.2093 25.8498,-11.3585 40.7737,-11.3585 z" />
    <path
       inkscape:connector-curvature="0"
       id="path6"
       style="fill:#007a2d;fill-rule:evenodd"
       d="m 184.3384,121.2946 c 13.7749,23.7252 39.4709,39.3526 68.3268,39.3526 2.9044,0 5.7707,-0.1616 8.594,-0.4673 -3.5209,1.4167 -7.1739,2.574 -10.9355,3.4485 -5.4783,1.2736 -11.1869,1.9471 -17.053,1.9471 -37.8287,0 -69.1122,-28.0004 -74.2696,-64.405 1.7327,2.329 3.6233,4.5335 5.6559,6.5977 5.5946,5.6816 12.2651,10.3002 19.6814,13.5264 z m 53.8946,34.1902 c -19.847,-3.8748 -37.0874,-15.592 -48.0813,-31.9999 3.2001,1.0268 6.5125,1.803 9.9143,2.306 8.8027,6.4406 19.4256,10.4804 30.8531,11.2364 2.6965,0.1783 4.7734,0.5566 7.0944,-1.0731 2.1177,-1.487 3.3726,-3.8605 4.2644,-6.2261 0.3357,-0.8902 0.5249,-1.4939 0.8192,-1.5024 0.2944,-0.009 0.6939,0.5774 1.0612,1.3345 0.9936,2.0502 1.2588,4.6798 1.1711,6.9334 -0.0479,1.2276 -0.2351,2.1367 -0.2994,2.555 -0.0647,0.4188 -0.007,0.3465 0.3335,0.106 1.3821,-0.9783 2.0377,-1.7238 2.9023,-3.187 0.2604,-0.4402 0.251,-0.4762 0.9185,-0.6211 1.5846,-0.3439 2.9781,-0.756 4.5403,-1.2846 12.2768,-4.1546 22.7387,-12.2472 29.8819,-22.7746 l 2.7132,-0.431 c 2.3698,-0.3761 5.0039,-0.7271 7.3939,-0.3894 2.4492,0.3463 4.4393,1.4899 6.1365,3.2821 0.6213,0.6562 1.1854,1.3765 1.7026,2.1169 l 1.5344,2.1982 c -4.0366,10.2376 -9.5578,18.455 -17.2393,26.0015 3.1247,0.5308 4.8622,0.15 7.0897,-1.3297 2.0822,2.4135 2.3414,8.3946 1.8472,11.5267 -0.1997,1.2644 -0.5306,1.9961 -0.7512,2.1903 -0.2207,0.1943 -0.3312,-0.1492 -0.9001,-0.9837 -0.5686,-0.8346 -1.5959,-2.1611 -2.9114,-3.2058 -1.3153,-1.0447 -2.9186,-1.8072 -4.2919,-2.2808 -1.3731,-0.4738 -2.5165,-0.6584 -3.9156,-0.7001 -0.6746,-0.0199 -1.4085,-0.007 -2.2405,0.0601 -12.4829,9.4064 -24.4764,9.4739 -41.541,6.1422 z" />
    <path
       inkscape:connector-curvature="0"
       id="path8"
       style="fill:#ed5f00;fill-rule:evenodd"
       d="m 233.2705,15.5342 c 3.9331,0 7.7948,0.3039 11.5641,0.8875 l 4.5423,4.2182 c 7.1123,6.6053 12.3916,14.7314 15.5225,23.6648 -0.0873,0.057 -0.1738,0.1143 -0.2595,0.1718 -1.5347,1.0291 -2.7594,2.1662 -3.9085,3.6088 -0.3031,0.3803 -1.143,1.573 -1.5315,1.8112 -0.5005,0.3068 -2.747,0.7089 -3.3751,0.8527 -22.9108,5.2308 -32.6612,24.5203 -17.1999,44.0891 1.0932,1.3833 1.9292,2.7799 4.0392,2.7799 1.871,0 2.7552,-1.1329 3.8107,-2.3644 1.3322,-1.554 2.6667,-3.1267 4.1365,-4.5534 1.3977,-1.3572 2.8919,-2.4957 4.5125,-3.5707 1.58,-1.0481 3.1474,-1.9405 4.9061,-2.6653 1.5871,-0.6548 3.2512,-1.1584 4.9529,-1.4029 -1.3782,3.9848 -3.1724,7.7762 -5.3304,11.3208 -1.966,-0.6607 -3.9317,-1.1558 -5.4029,-1.4663 -2.0454,-0.4325 -3.1326,-0.5087 -3.4366,-0.2303 -0.3037,0.2779 0.1769,0.9094 0.9826,2.4538 0.7585,1.4536 1.8052,3.7162 2.5017,6.6719 -10.8025,12.775 -26.9452,20.8875 -44.9861,20.8875 -9.0049,0 -17.7169,-2.0412 -25.5736,-5.8289 -5.1221,-13.0838 -3.3867,-30.8755 2.7223,-46.9158 0.8119,0.6743 1.841,1.1003 2.9762,1.155 1.8908,0.091 3.5883,-0.8717 4.5235,-2.3715 1.2441,3.776 0.8987,8.755 -1.9997,14.45 -1.3377,2.6276 -2.1855,3.5832 -2.1949,3.8719 -0.009,0.2881 0.8198,-0.0899 1.7496,-0.7529 0.9296,-0.663 1.9598,-1.6115 2.6126,-2.3034 0.6528,-0.6919 0.9276,-1.1287 1.0189,-0.7657 0.0907,0.3627 -0.002,1.5234 -0.7112,3.2146 -0.7098,1.691 -2.0369,3.9122 -3.6672,5.7741 -1.63,1.862 -3.5634,3.3644 -4.4614,4.1065 -0.8978,0.7418 -0.7597,0.7236 -0.1121,0.5699 0.6477,-0.1534 1.8056,-0.442 2.9016,-0.8963 1.096,-0.4549 2.1293,-1.0751 2.7472,-1.4791 0.6179,-0.4041 0.8201,-0.5921 0.7016,-0.3199 -0.1191,0.2716 -0.5592,1.0033 -1.6155,2.2286 -1.0563,1.2253 -2.7289,2.9452 -4.0838,4.0772 -1.3549,1.1317 -2.3914,1.6762 -2.4288,1.953 -0.0374,0.2767 0.9236,0.2855 2.724,0.1282 14.3174,-1.2475 26.9231,-16.3404 19.6477,-30.3007 -1.721,-3.3028 -4.1952,-5.9769 -5.714,-7.5337 -1.5191,-1.5568 -2.0831,-1.9958 -1.856,-1.9896 0.2274,0.0068 1.2446,0.4594 2.5448,1.2472 1.3002,0.788 2.8825,1.9121 4.4079,3.4094 1.5256,1.4978 2.9936,3.3691 4.1796,5.3884 1.1859,2.0191 2.0893,4.1862 2.5459,4.9782 0.4568,0.7928 0.4665,0.2104 0.3485,-0.9361 -0.118,-1.1462 -0.3636,-2.8564 -0.3499,-3.6127 0.0133,-0.7566 0.2861,-0.5595 1.1688,0.5807 0.8825,1.1403 2.3753,3.2231 3.3624,5.4937 0.9868,2.2694 1.468,4.726 1.753,6.3503 0.285,1.6244 0.3743,2.4161 0.555,2.2465 0.1806,-0.1701 0.4528,-1.3016 0.625,-2.6744 0.1718,-1.373 0.245,-2.988 0.3264,-3.7346 0.0819,-0.747 0.1741,-0.6262 0.5711,0.444 0.3973,1.07 1.0997,3.0893 1.5897,5.0794 0.4894,1.9899 0.7665,3.9508 0.8813,4.9691 0.1149,1.018 0.0673,1.0929 0.6707,0.1766 0.6032,-0.9167 1.8571,-2.8261 2.7867,-6.3429 3.9054,-14.7819 -7.6236,-29.1525 -22.2957,-30.7672 -3.1188,-0.3437 -5.3927,-0.1378 -6.5248,-0.042 -1.1314,0.0953 -1.1223,0.0803 -0.8047,-0.14 0.3176,-0.2204 0.9431,-0.6457 1.966,-1.1304 1.0237,-0.4849 2.4447,-1.0293 4.2987,-1.3532 1.8534,-0.3235 4.1399,-0.4256 6.1598,-0.2178 2.0207,0.2076 3.7749,0.7251 4.5519,0.9097 0.7764,0.1852 0.5754,0.0372 0.135,-0.3079 -0.4404,-0.3454 -1.1196,-0.8879 -1.8314,-1.326 -0.7112,-0.4384 -1.4553,-0.7719 -1.8798,-0.9715 -0.4239,-0.2002 -0.5297,-0.2669 0.1994,-0.3298 0.7291,-0.0638 2.293,-0.1245 3.8807,0.0054 1.5886,0.1295 3.2007,0.4491 4.8281,1.1581 1.6277,0.7089 3.271,1.8063 3.9941,2.1778 0.7234,0.3715 0.5266,0.0167 0.1532,-0.5181 -0.3732,-0.5345 -0.9236,-1.2477 -1.5169,-1.8738 -0.5929,-0.627 -1.2284,-1.1649 -1.4771,-1.5211 -0.2478,-0.3565 -0.1089,-0.5303 0.7347,-0.329 0.844,0.2017 2.3926,0.779 3.7716,1.5691 1.3784,0.7894 2.5879,1.7924 3.1885,2.2495 0.6009,0.4572 0.5941,0.3687 0.2419,-1.1501 -0.3517,-1.5194 -1.0478,-4.4689 -4.1297,-7.3412 -7.8179,-7.2856 -17.0575,-6.4312 -25.6356,-1.2851 -0.0187,-0.435 -0.0474,-0.9086 -0.0865,-1.4273 -0.4415,-5.8005 -1.799,-11.2434 -4.4215,-15.6629 11.274,-6.7757 24.4741,-10.6742 38.5856,-10.6742 z m -64.0823,91.3863 c -2.5995,-2.422 -4.9999,-5.0946 -7.1622,-8.0007 l -3.6958,-4.9679 C 158.28,92.8255 158.25,91.6938 158.25,90.5547 c 0,-1.3073 0.0337,-2.6069 0.0998,-3.8977 l 0.002,0.0073 c 0.4061,1.3354 1.0098,2.6032 1.3547,3.3068 0.3451,0.7032 0.4316,0.8419 0.4344,-0.5283 0.003,-1.3708 -0.0783,-4.2502 0.3942,-7.1234 0.4721,-2.8732 1.4975,-5.7395 2.5034,-7.6485 1.0055,-1.9096 1.9906,-2.8613 2.3882,-3.0496 0.3973,-0.1886 0.2067,0.3877 0.0664,1.4981 -0.1412,1.1099 -0.232,2.755 -0.1393,4.0957 0.0928,1.3402 0.3698,2.3761 0.6245,2.152 0.2549,-0.2246 0.4888,-1.7091 1.8761,-4.8891 1.9844,-4.5496 4.4881,-7.8118 7.1622,-9.9679 0.6834,1.8325 2.4058,3.1763 4.4833,3.2765 0.1571,0.0076 0.3128,0.0076 0.4668,8e-4 -6.5866,11.9376 -11.138,27.4003 -10.7787,39.1331 z m -0.5938,-54.393 c 0.5666,-0.9616 1.153,-1.9096 1.7607,-2.8431 0.403,0.0252 0.8003,0.0587 1.1902,0.1001 2.5008,0.2654 4.705,0.8629 6.3934,1.4547 1.6876,0.5915 2.8599,1.1774 3.0354,1.379 0.1755,0.2013 -0.6448,0.0176 -3.1944,-0.1982 -2.166,-0.1832 -5.5793,-0.3894 -9.1853,0.1075 z m 10.9151,-14.2896 c 1.0441,-1.0728 2.1174,-2.1172 3.2233,-3.1261 1.6286,1.6501 3.1659,3.7148 4.2171,5.5682 1.0926,1.9252 1.6606,3.6238 1.9853,4.9164 0.3247,1.2916 0.406,2.1778 0.4432,2.6312 0.0374,0.4529 0.0306,0.473 -0.7291,-0.6267 -0.7597,-1.0999 -2.2728,-3.3189 -4.9169,-5.8955 -1.1632,-1.1337 -2.5453,-2.3363 -4.2229,-3.4675 z" />
    <path
       inkscape:connector-curvature="0"
       id="path10"
       style="fill:#f58700;fill-rule:evenodd"
       d="m 263.5921,40.9154 c 0.4705,1.1156 0.9066,2.2459 1.3073,3.3893 -0.0873,0.057 -0.1738,0.1143 -0.2595,0.1718 -1.5347,1.0291 -2.7594,2.1662 -3.9085,3.6088 -0.3031,0.3803 -1.143,1.573 -1.5315,1.8112 -0.5005,0.3068 -2.747,0.7089 -3.3751,0.8527 -22.9108,5.2308 -32.6612,24.5203 -17.1999,44.0891 1.0932,1.3833 1.9292,2.7799 4.0392,2.7799 1.871,0 2.7552,-1.1329 3.8107,-2.3644 1.3322,-1.554 2.6667,-3.1267 4.1365,-4.5534 1.3977,-1.3572 2.8919,-2.4957 4.5125,-3.5707 1.58,-1.0481 3.1474,-1.9405 4.9061,-2.6653 1.5871,-0.6548 3.2512,-1.1584 4.9529,-1.4029 -1.3782,3.9848 -3.1724,7.7762 -5.3304,11.3208 -1.966,-0.6607 -3.9317,-1.1558 -5.4029,-1.4663 -2.0454,-0.4325 -3.1326,-0.5087 -3.4366,-0.2303 -0.3037,0.2779 0.1769,0.9094 0.9826,2.4538 0.7585,1.4536 1.8052,3.7162 2.5017,6.6719 -10.8025,12.775 -26.9452,20.8875 -44.9861,20.8875 -9.0055,0 -17.7172,-2.0423 -25.5741,-5.8303 -5.1216,-13.0835 -3.3862,-30.8746 2.7228,-46.9144 0.8119,0.6743 1.841,1.1003 2.9762,1.155 1.8908,0.091 3.5883,-0.8717 4.5235,-2.3715 1.2441,3.776 0.8987,8.755 -1.9997,14.45 -1.3377,2.6276 -2.1855,3.5832 -2.1949,3.8719 -0.009,0.2881 0.8198,-0.0899 1.7496,-0.7529 0.9296,-0.663 1.9598,-1.6115 2.6126,-2.3034 0.6528,-0.6919 0.9276,-1.1287 1.0189,-0.7657 0.0907,0.3627 -0.002,1.5234 -0.7112,3.2146 -0.7098,1.691 -2.0369,3.9122 -3.6672,5.7741 -1.63,1.862 -3.5634,3.3644 -4.4614,4.1065 -0.8978,0.7418 -0.7597,0.7236 -0.1121,0.5699 0.6477,-0.1534 1.8056,-0.442 2.9016,-0.8963 1.096,-0.4549 2.1293,-1.0751 2.7472,-1.4791 0.6179,-0.4041 0.8201,-0.5921 0.7016,-0.3199 -0.1191,0.2716 -0.5592,1.0033 -1.6155,2.2286 -1.0563,1.2253 -2.7289,2.9452 -4.0838,4.0772 -1.3549,1.1317 -2.3914,1.6762 -2.4288,1.953 -0.0374,0.2767 0.9236,0.2855 2.724,0.1282 14.3174,-1.2475 26.9231,-16.3404 19.6477,-30.3007 -1.721,-3.3028 -4.1952,-5.9769 -5.714,-7.5337 -1.5191,-1.5568 -2.0831,-1.9958 -1.856,-1.9896 0.2274,0.0068 1.2446,0.4594 2.5448,1.2472 1.3002,0.788 2.8825,1.9121 4.4079,3.4094 1.5256,1.4978 2.9936,3.3691 4.1796,5.3884 1.1859,2.0191 2.0893,4.1862 2.5459,4.9782 0.4568,0.7928 0.4665,0.2104 0.3485,-0.9361 -0.118,-1.1462 -0.3636,-2.8564 -0.3499,-3.6127 0.0133,-0.7566 0.2861,-0.5595 1.1688,0.5807 0.8825,1.1403 2.3753,3.2231 3.3624,5.4937 0.9868,2.2694 1.468,4.726 1.753,6.3503 0.285,1.6244 0.3743,2.4161 0.555,2.2465 0.1806,-0.1701 0.4528,-1.3016 0.625,-2.6744 0.1718,-1.373 0.245,-2.988 0.3264,-3.7346 0.0819,-0.747 0.1741,-0.6262 0.5711,0.444 0.3973,1.07 1.0997,3.0893 1.5897,5.0794 0.4894,1.9899 0.7665,3.9508 0.8813,4.9691 0.1149,1.018 0.0673,1.0929 0.6707,0.1766 0.6032,-0.9167 1.8571,-2.8261 2.7867,-6.3429 3.9054,-14.7819 -7.6236,-29.1525 -22.2957,-30.7672 -3.1188,-0.3437 -5.3927,-0.1378 -6.5248,-0.042 -1.1314,0.0953 -1.1223,0.0803 -0.8047,-0.14 0.3176,-0.2204 0.9431,-0.6457 1.966,-1.1304 1.0237,-0.4849 2.4447,-1.0293 4.2987,-1.3532 1.8534,-0.3235 4.1399,-0.4256 6.1598,-0.2178 2.0207,0.2076 3.7749,0.7251 4.5519,0.9097 0.7764,0.1852 0.5754,0.0372 0.135,-0.3079 -0.4404,-0.3454 -1.1196,-0.8879 -1.8314,-1.326 -0.7112,-0.4384 -1.4553,-0.7719 -1.8798,-0.9715 -0.4239,-0.2002 -0.5297,-0.2669 0.1994,-0.3298 0.7291,-0.0638 2.293,-0.1245 3.8807,0.0054 1.5886,0.1295 3.2007,0.4491 4.8281,1.1581 1.6277,0.7089 3.271,1.8063 3.9941,2.1778 0.7234,0.3715 0.5266,0.0167 0.1532,-0.5181 -0.3732,-0.5345 -0.9236,-1.2477 -1.5169,-1.8738 -0.5929,-0.627 -1.2284,-1.1649 -1.4771,-1.5211 -0.2478,-0.3565 -0.1089,-0.5303 0.7347,-0.329 0.844,0.2017 2.3926,0.779 3.7716,1.5691 1.3784,0.7894 2.5879,1.7924 3.1885,2.2495 0.6009,0.4572 0.5941,0.3687 0.2419,-1.1501 -0.3517,-1.5194 -1.0478,-4.4689 -4.1297,-7.3412 -2.5593,-2.3848 -5.2708,-3.8974 -8.0614,-4.6727 15.1204,-6.0101 32.0784,-5.5924 46.825,1.0044 z" />
    <path
       inkscape:connector-curvature="0"
       id="path12"
       style="fill:#f7c600;fill-rule:evenodd"
       d="m 237.15,60.7911 c -7.9687,8.7006 -8.5857,21.3139 1.4749,34.0472 1.0932,1.3833 1.9292,2.7799 4.0392,2.7799 1.871,0 2.7552,-1.1329 3.8107,-2.3644 1.3322,-1.554 2.6667,-3.1267 4.1365,-4.5534 1.3977,-1.3572 2.8919,-2.4957 4.5125,-3.5707 1.58,-1.0481 3.1474,-1.9405 4.9061,-2.6653 1.5871,-0.6548 3.2512,-1.1584 4.9529,-1.4029 -1.3782,3.9848 -3.1724,7.7762 -5.3304,11.3208 l -0.004,-0.0014 -0.0879,-0.0295 -0.04,-0.0133 -0.0522,-0.0173 -0.0763,-0.0252 -0.0158,-0.0051 -0.0919,-0.0301 -0.0202,-0.0065 -0.072,-0.0233 -0.0556,-0.0181 -0.0365,-0.0116 -0.0914,-0.0295 h -5e-4 l -0.0916,-0.0292 -0.0357,-0.0111 -0.0562,-0.0176 -0.0712,-0.0224 -0.0204,-0.0065 -0.0916,-0.0284 -0.0153,-0.0045 -0.076,-0.0235 -0.051,-0.0156 -0.0403,-0.0122 -0.0862,-0.0264 -0.005,-0.0014 -0.0908,-0.0272 -0.0309,-0.0094 -0.0601,-0.0179 -0.0658,-0.0195 -0.0246,-0.0074 -0.0905,-0.0267 -0.0105,-0.0034 -0.0797,-0.0229 -0.0456,-0.0136 -0.0446,-0.0128 -0.0805,-0.0233 -0.009,-0.0025 -0.0896,-0.0255 -0.0258,-0.0074 -0.0635,-0.0182 -0.0604,-0.017 -0.0284,-0.0079 -0.0887,-0.025 -0.006,-0.0017 -0.0822,-0.0229 -0.0408,-0.0114 -0.0474,-0.013 -0.0748,-0.0207 -0.0131,-0.0034 -0.0876,-0.0241 -0.021,-0.0057 -0.0664,-0.0179 -0.0547,-0.0147 -0.032,-0.0085 -0.0865,-0.0233 -0.002,-5e-4 -0.0842,-0.0222 -0.0352,-0.0096 -0.0505,-0.013 -0.0686,-0.0179 -0.0167,-0.0045 -0.0851,-0.0222 -0.0164,-0.0042 -0.0681,-0.0176 -0.0493,-0.0125 -0.0352,-0.0088 -0.0814,-0.021 -0.002,-5e-4 -0.0833,-0.021 -0.0301,-0.0077 -0.0527,-0.013 -0.0621,-0.0156 -0.0202,-0.0048 -0.0819,-0.0204 -0.0119,-0.0032 -0.0698,-0.017 -0.0431,-0.0105 -0.0377,-0.009 -0.0746,-0.0182 -0.006,-0.0014 -0.08,-0.0193 -0.025,-0.0059 -0.0541,-0.0128 -0.0559,-0.0133 -0.0232,-0.0054 -0.078,-0.0187 -0.008,-0.0017 -0.0703,-0.0165 -0.0374,-0.0085 -0.0397,-0.0093 -0.067,-0.0154 -0.009,-0.0022 -0.076,-0.0173 -0.0204,-0.0046 -0.055,-0.0127 -0.0491,-0.0111 -0.0255,-0.0057 -0.0743,-0.0167 -0.003,-6e-4 -0.0698,-0.0156 -0.032,-0.007 -0.0409,-0.0091 -0.0598,-0.0131 -0.0122,-0.0025 -0.0715,-0.0156 -0.0155,-0.0031 -0.0553,-0.0122 -0.0429,-0.0088 -0.0272,-0.006 -0.0692,-0.0147 c -2.0454,-0.4325 -3.1326,-0.5087 -3.4366,-0.2303 -0.3037,0.2779 0.1769,0.9094 0.9826,2.4538 l 0.0357,0.0686 0.002,0.0045 0.0337,0.0656 0.005,0.0085 0.0318,0.0626 0.007,0.0134 0.03,0.0589 0.009,0.0179 0.0284,0.0553 0.0113,0.0233 0.0261,0.0513 0.0142,0.0283 0.0238,0.0477 0.0165,0.0332 0.0218,0.0436 0.0193,0.0386 0.0193,0.0397 0.0218,0.044 0.0173,0.0351 0.0241,0.0499 0.015,0.0306 0.0267,0.0556 0.0127,0.0261 0.0295,0.0613 0.0102,0.0215 0.0321,0.0675 0.008,0.0162 0.0346,0.0737 0.005,0.0113 0.0374,0.0803 0.003,0.006 0.0399,0.0867 3e-4,6e-4 0.0409,0.0885 0.002,0.0048 0.0386,0.0848 0.005,0.0105 0.0363,0.0805 0.007,0.0159 0.0337,0.0757 0.01,0.0221 0.0315,0.0709 0.0124,0.0281 0.029,0.0661 0.015,0.0346 0.0264,0.0606 0.0178,0.0409 0.0236,0.0556 0.0204,0.0473 0.0212,0.0502 0.023,0.0539 0.0187,0.0445 0.0253,0.061 0.0164,0.0388 0.0414,0.1007 0.0306,0.0749 0.0114,0.0272 0.0329,0.0819 0.008,0.0213 0.0357,0.089 0.006,0.0151 0.0383,0.0967 0.003,0.0085 0.0408,0.1043 9e-4,0.002 0.0414,0.1075 0.002,0.0048 0.0395,0.1038 0.005,0.0116 0.0366,0.0981 0.007,0.0182 0.034,0.0922 0.009,0.0258 0.0314,0.0862 0.0122,0.0326 0.0289,0.0802 0.0142,0.04 0.0264,0.074 0.0167,0.0477 0.0239,0.0675 0.0192,0.0552 0.021,0.0607 0.0219,0.063 0.0181,0.0541 0.04,0.1183 0.0261,0.0788 0.0136,0.0406 0.0286,0.087 0.0105,0.0332 0.0309,0.0956 0.008,0.0261 0.0331,0.1038 0.006,0.0187 0.0352,0.1123 0.004,0.0113 0.0371,0.1208 0.001,0.004 0.0377,0.1256 0.001,0.004 0.0363,0.1222 0.003,0.0122 0.0337,0.1157 0.006,0.0204 0.0309,0.1083 0.008,0.0284 0.0284,0.1015 0.0102,0.0369 0.0258,0.0938 0.0122,0.0454 0.0232,0.0868 0.0145,0.0536 0.021,0.0791 0.0164,0.0627 0.0184,0.0714 0.0182,0.0712 0.0162,0.0638 0.0201,0.0803 0.0139,0.0555 0.0218,0.0896 0.0114,0.0477 0.0238,0.0987 0.009,0.0391 c -10.8025,12.775 -26.9452,20.8875 -44.9861,20.8875 -2.8247,0 -5.6202,-0.2019 -8.3697,-0.5944 -1.8325,-8.837 -1.3722,-18.0217 1.3206,-26.6236 3.8021,-3.729 6.3336,-8.5789 6.6209,-13.7488 1.1025,-1.6302 2.3054,-3.21 3.607,-4.7311 0.1599,0.3301 0.2961,0.6014 0.4064,0.7926 0.4568,0.7928 0.4665,0.2104 0.3485,-0.9361 -0.0204,-0.1994 -0.0445,-0.4157 -0.0709,-0.6414 0.4818,-0.5408 0.9778,-1.0728 1.4851,-1.5974 0.8651,1.1896 1.9779,2.8851 2.7671,4.7005 0.9868,2.2694 1.468,4.726 1.753,6.3503 0.285,1.6244 0.3743,2.4161 0.555,2.2465 0.1806,-0.1701 0.4528,-1.3016 0.625,-2.6744 0.1718,-1.373 0.245,-2.988 0.3264,-3.7346 0.0819,-0.747 0.1741,-0.6262 0.5711,0.444 0.3973,1.07 1.0997,3.0893 1.5897,5.0794 0.4894,1.9899 0.7665,3.9508 0.8813,4.9691 0.1149,1.018 0.0673,1.0929 0.6707,0.1766 0.6032,-0.9167 1.8571,-2.8261 2.7867,-6.3429 1.793,-6.7862 0.3312,-13.4851 -3.1928,-18.9033 4.1515,-2.6911 8.5829,-4.7346 13.1578,-6.1388 z M 278.5399,44.149 c 2.9704,3.7999 5.4559,7.9973 7.3638,12.4985 l -0.2121,-0.1046 c -2.1416,-1.0495 -4.3299,-1.9822 -6.5372,-2.8826 -0.3673,-0.1497 -0.7385,-0.3071 -1.1119,-0.4398 -0.5958,-0.2112 -1.2083,-0.3031 -1.8016,-0.2629 0.021,-1.1785 0.1719,-2.4061 0.4421,-3.4876 0.2779,-1.1114 0.7016,-2.1002 1.2112,-3.1191 0.3618,-0.7239 0.6091,-1.4655 0.6457,-2.2019 z m 27.6314,28.6353 C 301.7918,67.8007 296.2141,62.8115 290.5883,59.27 285.2727,43.6783 272.8437,30.3214 257.668,23.9495 c -1.7732,-2.1487 -3.6856,-4.1782 -5.7256,-6.0725 26.4764,6.7817 47.745,28.2156 54.2289,54.9073 z M 268.2348,42.4257 c -1.6005,-4.409 -3.6814,-8.5883 -6.1802,-12.4724 4.9053,2.7697 9.3457,6.2661 13.1779,10.3411 -0.5629,-0.0681 -1.1507,-0.0173 -1.742,0.1307 -1.179,0.2946 -2.2844,0.6763 -3.4043,1.1527 -0.6068,0.2581 -1.2295,0.5425 -1.8514,0.8479 z" />
    <path
       inkscape:connector-curvature="0"
       id="path14"
       style="fill:#ffffff;fill-rule:evenodd"
       d="m 308.0273,96.8806 c -0.4878,5.8235 -1.6422,11.4572 -3.3828,16.8273 -0.6369,-0.9123 -1.3271,-1.7811 -2.0568,-2.5516 -4.8672,-5.1395 -10.3552,-5.0575 -16.8595,-4.0236 l -1.7789,0.2824 0.0162,-0.7149 c 0.0167,-0.7149 0.0502,-2.1449 0.5158,-3.9405 1.0903,-4.2068 3.4698,-7.9123 7.2824,-10.1091 1.9621,-1.1309 4.3563,-1.9621 5.5535,-2.3778 l 1.197,-0.4157 -0.399,-0.1001 c -0.399,-0.0996 -1.1972,-0.2992 -2.5439,-0.2326 -1.3467,0.0667 -3.2424,0.399 -4.1901,0.5652 l -0.9641,0.1665 c -0.0168,0 -0.0372,-0.0142 -1.2472,-1.1139 -12.8099,-11.643 -27.6691,-13.9547 -41.1851,-1.1473 -1.7326,1.6418 -3.4752,3.7576 -4.3727,4.8051 -0.8981,1.0475 -0.9312,1.0475 -0.948,1.0475 -0.0167,0 -0.0167,0 -1.0807,-1.3467 -13.6246,-17.2432 -5.4097,-33.3984 15.0807,-38.076 2.1115,-0.482 3.475,-0.6817 4.506,-1.3135 1.0308,-0.6318 1.729,-1.696 2.5105,-2.6769 2.3834,-2.9925 7.0383,-5.4307 10.7248,-6.3515 0.4653,-0.1165 0.4653,-0.1165 0.1162,0.5819 -0.3491,0.6982 -1.0478,2.0951 -1.4964,3.8906 -1.4513,5.8054 -0.0658,11.8134 4.1234,16.1615 1.3136,1.3634 2.81,2.3278 3.5748,2.8105 0.7648,0.4818 0.7982,0.4818 0.2663,-0.3996 -0.5323,-0.8811 -1.6297,-2.6435 -2.4442,-4.3395 -0.8152,-1.6961 -1.3469,-3.3255 -1.6461,-4.3398 -0.2995,-1.0144 -0.3661,-1.4134 -0.3993,-1.6127 -0.0332,-0.1996 -0.0332,-0.1996 1.2302,0.3159 1.2638,0.5152 3.7911,1.5463 6.3018,2.7767 2.5108,1.2305 5.0048,2.6602 8.0311,4.9382 2.2158,1.668 4.7175,3.7908 7.0598,6.0291 9.8965,9.4543 10.0181,12.6802 8.9043,25.9849 z m 4.025,5.45 c 0.7535,-0.6587 1.8288,-1.6229 3.0719,-2.4072 1.243,-0.7847 2.6529,-1.3893 3.83,-1.7366 1.1771,-0.3477 2.1214,-0.4379 2.6636,-0.4821 0.5425,-0.044 0.6828,-0.042 0.2598,-0.5249 -0.4234,-0.4829 -1.4111,-1.4508 -2.5854,-2.428 -1.1745,-0.9772 -2.5354,-1.9634 -3.7982,-2.7393 -1.2624,-0.7764 -2.4268,-1.3421 -3.0161,-1.6297 -0.5895,-0.2875 -0.6045,-0.2963 -0.663,0.5399 -0.0587,0.836 -0.1605,2.5168 -0.3286,4.1388 -0.1682,1.6215 -0.4027,3.184 -0.6239,4.5012 -0.2212,1.3169 -0.429,2.3888 -0.5368,2.9832 -0.108,0.594 -0.1165,0.7109 -0.0814,0.8229 0.0355,0.1117 0.114,0.2189 0.3687,0.0958 0.2549,-0.1227 0.6859,-0.4755 1.4394,-1.134 z M 245.5489,34.0663 c 1.4162,4.6111 0.5195,3.7142 5.1307,5.1307 -4.6112,1.4164 -3.7142,0.5197 -5.1307,5.1309 -1.4164,-4.6112 -0.5201,-3.7145 -5.131,-5.1309 4.6112,-1.4162 3.7146,-0.5198 5.131,-5.1307 z M 232.6302,22.9037 c 2.7639,8.9989 1.0137,7.2487 10.0127,10.0129 -8.999,2.7643 -7.2488,1.0141 -10.0127,10.013 -2.764,-8.9989 -1.0147,-7.249 -10.013,-10.013 8.9986,-2.7639 7.2487,-1.0146 10.013,-10.0129 z" />
    <path
       inkscape:connector-curvature="0"
       id="path16"
       style="fill:#e6e6e6;fill-rule:evenodd"
       d="m 252.0793,60.6808 c -5.487,3.0926 -7.3825,5.3372 -8.6295,7.1745 -1.247,1.8373 -1.8456,3.2672 -1.7957,3.7494 0.0499,0.4822 0.7482,0.0167 2.0617,-0.9144 1.3135,-0.9311 3.2423,-2.3278 5.171,-3.2423 1.9287,-0.9144 3.8575,-1.3467 5.304,-1.4631 1.4466,-0.1164 2.411,0.0831 2.9929,0.3159 0.582,0.2328 0.7815,0.4988 0.4988,0.9144 -0.2826,0.4157 -1.0475,0.981 -2.2779,2.0119 -1.2304,1.0309 -2.9264,2.5274 -4.3896,4.2233 -1.4631,1.696 -2.6935,3.5914 -3.6412,5.3871 -0.9478,1.7957 -1.6128,3.4917 -1.962,4.4727 -0.3491,0.981 -0.3824,1.247 -0.2161,1.3135 0.1662,0.0665 0.532,-0.0664 1.6792,-0.8978 1.1473,-0.8313 3.076,-2.361 5.2874,-3.7411 2.2114,-1.3801 4.7055,-2.6105 7.3159,-3.392 2.6105,-0.7814 5.3373,-1.1139 8.114,-1.064 2.7767,0.0499 5.6033,0.4821 7.0499,0.6817 1.4465,0.1995 1.5131,0.1663 1.4466,-0.0499 -0.0665,-0.2161 -0.266,-0.6152 -1.4465,-1.3302 -1.1806,-0.715 -3.3421,-1.7459 -5.3872,-2.5606 -2.0451,-0.8148 -3.9739,-1.4133 -4.7387,-1.8124 -0.7649,-0.399 -0.3658,-0.5986 0.7149,-1.2636 1.0808,-0.6651 2.8433,-1.7957 3.8076,-2.4108 0.9644,-0.6152 1.1307,-0.715 1.0309,-0.9145 -0.0997,-0.1996 -0.4656,-0.4988 -1.8123,-0.981 -1.3468,-0.4822 -3.6746,-1.1473 -5.7031,-1.5963 -2.0285,-0.4489 -3.7578,-0.6817 -4.8718,-0.7981 -1.114,-0.1163 -1.6129,-0.1163 -1.3529,-0.4715 0.26,-0.3552 1.2788,-1.0656 2.4117,-1.5954 1.1329,-0.5297 2.3799,-0.879 2.5891,-1.1645 0.2092,-0.2855 -0.6195,-0.5073 -4.0636,-0.2769" />
    <path
       inkscape:connector-curvature="0"
       id="path18"
       style="fill:#009b3a;fill-rule:evenodd"
       d="m 198.9042,125.608 c 0.3859,0.0644 0.7733,0.1254 1.1618,0.1829 8.8027,6.4406 19.4256,10.4804 30.8531,11.2364 2.6965,0.1783 4.7734,0.5566 7.0944,-1.0731 2.1177,-1.4873 3.3726,-3.8605 4.2644,-6.2261 0.3357,-0.8902 0.5249,-1.4939 0.8192,-1.5024 0.2944,-0.009 0.6939,0.5774 1.0612,1.3345 0.9936,2.0505 1.2588,4.6798 1.1711,6.9334 -0.0476,1.2276 -0.2351,2.1367 -0.2994,2.555 -0.0647,0.4185 -0.007,0.3462 0.3335,0.106 1.3821,-0.9786 2.0377,-1.7238 2.9023,-3.187 0.2604,-0.4402 0.251,-0.4762 0.9185,-0.6211 1.5846,-0.3439 2.9781,-0.756 4.5403,-1.2846 12.2768,-4.1546 22.7387,-12.2472 29.8822,-22.7746 l 2.7129,-0.431 c 2.3698,-0.3763 5.0042,-0.7271 7.3939,-0.3894 2.4495,0.3463 4.4396,1.4899 6.1362,3.2821 0.6216,0.6559 1.1859,1.3765 1.7029,2.1169 l 1.5344,2.198 c -4.0369,10.2378 -9.5578,18.4552 -17.2393,26.0017 3.125,0.5308 4.8619,0.15 7.0897,-1.33 2.0825,2.4138 2.3417,8.3949 1.8472,11.527 -0.1997,1.2642 -0.5306,1.9961 -0.7509,2.1903 -0.221,0.1943 -0.3315,-0.1489 -0.9001,-0.9837 -0.5689,-0.8346 -1.5962,-2.1611 -2.9115,-3.2058 -1.3155,-1.0447 -2.9188,-1.8072 -4.2921,-2.2808 -1.3731,-0.4736 -2.5165,-0.6584 -3.9156,-0.6999 -0.6746,-0.0201 -1.4088,-0.007 -2.2405,0.0599 -0.5879,0.4429 -1.1746,0.8652 -1.761,1.2673 -10.2214,5.0839 -20.7908,4.6355 -34.7576,1.9087 -17.7285,-3.4613 -33.3769,-13.1808 -44.3512,-26.9106 z m 62.355,34.5719 c -3.5209,1.4167 -7.1739,2.574 -10.9355,3.4485 -37.9458,3.1381 -73.2544,-19.7681 -85.6667,-55.8602 5.5946,5.6822 12.2651,10.3005 19.6814,13.5264 13.7749,23.7252 39.4709,39.3526 68.3268,39.3526 2.9044,0 5.7707,-0.1616 8.594,-0.4673 z" />
    <path
       inkscape:connector-curvature="0"
       id="path20"
       style="fill:#006ead;fill-rule:evenodd"
       d="m 207.3955,126.4407 c 0.6362,0.019 1.2747,0.0288 1.9154,0.0288 18.1275,0 34.455,-7.6989 45.8957,-20.0037 2.2798,-2.4518 2.8229,-2.8614 1.9085,-6.3795 -0.251,-0.9651 -0.6135,-1.7958 -0.9443,-2.4297 -0.3306,-0.6341 -0.629,-1.0716 -0.6181,-1.3123 0.0105,-0.24 0.3306,-0.2837 1.0275,-0.0311 0.6969,0.2533 1.7715,0.8024 2.7126,1.413 0.9413,0.6107 1.7498,1.2828 2.4448,2.0028 0.6534,0.677 1.2604,1.4401 1.7786,2.2265 0.5431,-1.2852 0.3808,-4.1219 -0.7757,-5.4012 3.0211,-4.6265 4.5215,-8.2102 6.2444,-13.5757 1.7737,0.1593 3.5635,0.5437 5.2131,1.0325 2.4595,0.7293 4.6975,1.7393 6.8135,3.1975 1.9778,1.3633 3.7696,3.0007 5.5258,4.6343 -0.9699,0.9043 -1.8371,1.9192 -2.6029,3.0522 -1.3862,2.0505 -2.4833,4.5279 -3.1031,6.9183 -0.4163,1.6065 -0.5968,3.1474 -0.6353,4.7995 l -0.0847,3.6499 c -7.4479,10.5174 -18.4681,18.3254 -31.2931,21.6575 -0.6763,-2.003 -1.5682,-3.9594 -2.6909,-5.8314 -1.1895,-1.9839 -2.4871,-3.5191 -3.4422,-3.496 -2.0029,0.0485 -3.1153,7.7048 -7.1744,11.102 -0.2244,0.003 -0.4489,0.005 -0.674,0.005 -9.9842,0 -19.3503,-2.6407 -27.4412,-7.2595 z" />
    <path
       inkscape:connector-curvature="0"
       id="path22"
       style="fill:#0092e8;fill-rule:evenodd"
       d="m 221.8226,125.2193 c 13.0611,-2.6472 24.6474,-9.3571 33.384,-18.7536 2.2799,-2.4518 2.8227,-2.8613 1.9084,-6.3793 -0.2509,-0.965 -0.6133,-1.7958 -0.944,-2.4296 -0.3306,-0.6344 -0.6292,-1.0719 -0.6182,-1.3124 0.0105,-0.2402 0.3307,-0.2836 1.0274,-0.0312 0.6967,0.2532 1.7715,0.8025 2.7127,1.413 0.9412,0.6106 1.7496,1.2826 2.4447,2.0029 0.6536,0.6769 1.2604,1.44 1.7785,2.2264 0.5431,-1.2852 0.3812,-4.1221 -0.7755,-5.4013 3.0209,-4.6265 4.5213,-8.2103 6.2443,-13.5755 1.774,0.1591 3.5636,0.5433 5.2132,1.0322 2.4594,0.7297 4.6974,1.7398 6.8134,3.1976 1.9776,1.3634 3.7695,3.0008 5.5257,4.6344 -0.9698,0.9041 -1.837,1.9193 -2.6029,3.0521 -1.3861,2.0506 -2.4833,4.5281 -3.1029,6.9184 -0.4163,1.6064 -0.5969,3.1474 -0.6355,4.7995 l -0.0845,3.6498 c -3.4119,4.818 -7.5737,9.0667 -12.3147,12.5777 -6.121,3.2579 -12.9372,5.3816 -20.1683,6.09 -0.4453,-0.965 -0.9446,-1.9136 -1.501,-2.8414 -1.1896,-1.9839 -2.4872,-3.5194 -3.4423,-3.4962 -1.3036,0.0315 -2.2306,3.2855 -3.8373,6.4907 -5.9888,-0.372 -11.7156,-1.7105 -17.0252,-3.8642 z" />
  </g>
  <path
     inkscape:connector-curvature="0"
     id="path25"
     style="fill:#182f5c;fill-rule:evenodd;stroke-width:1.87161648"
     d="m 314.65703,114.57309 -6.75952,58.2656 H 272.82312 L 292.1889,5.638097 h 60.75387 c 12.73206,0.0798 20.96996,2.34724 24.71804,6.88065 2.52862,3.10235 4.00956,7.318053 4.36981,12.687183 0.17594,2.62487 0.0773,5.60798 -0.30325,8.86949 l -6.05281,52.06093 c -1.18332,9.70461 -4.14391,16.90284 -8.96038,21.55607 -4.89944,4.53399 -13.69317,6.80138 -26.41506,6.88067 z m 428.11449,-80.49883 -19.62831,75.12911 h 21.59894 z M 718.02968,5.637127 h 55.81286 l 9.15795,167.201563 h -35.11182 l -1.44478,-31.57902 h -32.34241 l -8.84981,31.57902 h -35.11233 z m -79.39642,0 h 35.11252 L 654.34299,172.83869 h -35.07494 z m -73.74435,28.437133 -19.6283,75.12911 h 21.59894 z M 540.1471,5.637127 h 55.81284 l 9.15794,167.201563 h -35.1118 l -1.44479,-31.57902 h -32.34241 l -8.8498,31.57902 H 492.25655 Z M 426.29145,114.69231 419.52412,172.83869 H 384.44919 L 403.81475,5.637127 h 59.669 c 12.73277,0.0798 20.9705,2.34648 24.71858,6.88048 2.52881,3.10233 3.97196,7.318023 4.33222,12.687753 0.17612,2.62485 0.0769,5.6074 -0.26548,8.8689 l -4.73893,40.40856 c -1.10869,9.70386 -5.94079,16.90288 -14.46321,21.55607 -2.14422,0.95477 -3.28634,1.78991 -3.4572,2.58554 l 0.009,0.11923 c 0.0396,0.59671 1.02897,1.39173 2.88703,2.30655 6.62008,3.81827 10.16951,9.30645 10.64706,16.42615 0.10964,1.63016 0.0752,3.34078 -0.1044,5.13049 l -5.83875,50.23186 h -35.07548 l 6.27834,-53.73219 c 0.0453,-0.43754 0.0536,-0.87508 0.0268,-1.27251 -0.14163,-2.10764 -1.37179,-3.14168 -3.61735,-3.14168 z m 8.87759,-76.91902 -5.12697,44.66361 h 18.52978 c 2.69494,0 4.20292,-1.51094 4.53032,-4.45432 l 4.18913,-35.75515 c 0.0427,-0.4769 0.0511,-0.91501 0.0268,-1.2725 -0.1411,-2.10823 -1.3738,-3.18164 -3.61934,-3.18164 z M 318.41546,82.43787 h 18.52923 c 2.6955,0 4.20419,-1.51151 4.53049,-4.4547 l 4.18967,-35.75478 c 0.0426,-0.47728 0.0511,-0.91482 0.0267,-1.27307 -0.14092,-2.10747 -1.37363,-3.18163 -3.61989,-3.18163 h -18.52927 z" />
  <path
     inkscape:connector-curvature="0"
     id="path27"
     style="fill:#182f5c;fill-rule:evenodd;stroke-width:1.87161648"
     d="m 523.98686,200.051 h 4.37107 l -3.77622,7.04502 3.89497,4.48598 -2.88396,2.68524 -3.00364,-3.34833 c -0.65385,0.9895 -1.44169,1.81655 -2.36373,2.47979 -0.92168,0.66365 -1.9672,0.99528 -3.1369,0.99528 -1.94286,0 -3.6473,-0.68968 -5.11442,-2.06944 -1.4666,-1.37977 -2.20018,-3.13323 -2.20018,-5.26015 0,-1.6427 0.38131,-2.99605 1.14465,-4.05922 0.76336,-1.06377 1.75931,-1.9537 2.98857,-2.66983 -0.55527,-0.61077 -1.00122,-1.25319 -1.33821,-1.92727 -0.33701,-0.67405 -0.50552,-1.44245 -0.50552,-2.30595 0,-1.70619 0.52513,-3.13825 1.57608,-4.29651 1.05041,-1.15869 2.38863,-1.73784 4.01409,-1.73784 1.52615,0 2.84438,0.53709 3.95453,1.61128 1.10998,1.07416 1.6654,2.45392 1.6654,4.1387 0,1.32691 -0.3023,2.46434 -0.90696,3.41178 -0.60465,0.94802 -1.45205,1.72683 -2.54261,2.33761 l 2.02185,2.36982 z m -6.66055,-1.42184 c 0.0199,0 0.0447,-0.006 0.0743,-0.0154 0.0297,-0.009 0.0546,-0.0263 0.0746,-0.0472 0.51532,-0.25331 0.98615,-0.56873 1.41249,-0.9482 0.4258,-0.37929 0.63933,-0.90537 0.63933,-1.57944 -0.0202,-0.61078 -0.19828,-1.07938 -0.53529,-1.40579 -0.337,-0.32681 -0.79313,-0.48983 -1.36799,-0.48983 -0.51531,0 -0.94165,0.17382 -1.27867,0.52106 -0.33698,0.34765 -0.50549,0.79543 -0.50549,1.34293 0,0.42133 0.10894,0.81103 0.32721,1.16909 0.21789,0.35806 0.46592,0.6947 0.74336,1.01071 0.0596,0.0841 0.12898,0.16301 0.2081,0.23729 0.0791,0.0736 0.14852,0.1524 0.20807,0.23653 z m 2.49756,9.09886 -3.41924,-4.07541 c -0.69397,0.33682 -1.31332,0.78982 -1.85825,1.35853 -0.54562,0.56873 -0.81816,1.3159 -0.81816,2.24269 0,0.90596 0.28779,1.64291 0.86248,2.21163 0.57488,0.56873 1.26883,0.8531 2.08159,0.8531 0,0 0.006,0 0.0144,0 0.009,0 0.0144,0 0.0144,0 0,0 0.006,0 0.0144,0 0.009,0 0.0144,0 0.0144,0 0.75317,0.0211 1.37724,-0.2373 1.87295,-0.7744 0.49569,-0.53688 0.90206,-1.13166 1.21908,-1.78486 z" />
  <path
     inkscape:connector-curvature="0"
     id="path29"
     style="fill:#182f5c;fill-rule:evenodd;stroke-width:1.87161648"
     d="m 463.01382,190.03633 c 6.3308,0 11.46287,5.45327 11.46287,12.17845 0,6.72595 -5.13207,12.1792 -11.46287,12.1792 -6.32973,0 -11.46231,-5.45325 -11.46231,-12.1792 0,-6.72518 5.13258,-12.17845 11.46231,-12.17845 z m -35.5149,23.78892 v -23.34714 h 4.0733 v 23.34714 z m -140.07875,-6.34956 h 4.72805 c -0.8329,2.10533 -2.19109,3.77987 -4.07385,5.02284 -1.88329,1.24242 -3.87572,1.87404 -5.97672,1.89545 -0.0195,0 -0.0442,0 -0.0743,0 -0.0298,0 -0.055,0 -0.0746,0 -3.15196,0 -5.83764,-1.20593 -8.05813,-3.61764 -2.22031,-2.41146 -3.33011,-5.28097 -3.33011,-8.60864 0,-3.30684 1.11543,-6.1499 3.34499,-8.52976 2.23029,-2.38062 4.8713,-3.56997 7.9245,-3.56997 2.20034,0 4.27665,0.63701 6.22931,1.91067 1.9523,1.27481 3.35532,3.00666 4.20728,5.19745 l -4.63852,-0.0319 c -0.67383,-0.86293 -1.52614,-1.55839 -2.55714,-2.08507 -1.03043,-0.52608 -2.10101,-0.78963 -3.21116,-0.78963 -2.00223,0 -3.70686,0.79504 -5.11462,2.38526 -1.40774,1.59044 -2.11134,3.48027 -2.11134,5.67107 0,2.06386 0.71903,3.89583 2.15564,5.49648 1.43755,1.60123 3.13764,2.40127 5.10011,2.40127 1.09018,0 2.101,-0.24174 3.03267,-0.72691 0.93219,-0.48444 1.76436,-1.1473 2.49793,-1.98997 z m 22.30036,6.34956 9.15868,-23.34714 h 3.18192 l 9.2471,23.34714 h -4.48981 l -2.37884,-6.03413 h -7.79049 l -2.43818,6.03413 z m 8.41549,-10.23553 h 4.69826 l -2.34923,-7.07708 z m 32.05297,10.23553 v -23.34714 h 5.56037 l 5.88779,17.85009 5.97618,-17.85009 h 5.53098 v 23.34714 h -4.07346 v -17.50224 l -5.67969,17.50224 h -3.44903 l -5.67914,-17.50224 v 17.50224 z m 43.4127,0 v -23.34714 h 3.98431 c 0.0797,0.0217 0.15853,0.0317 0.23768,0.0317 0.0798,0 0.15852,0 0.23787,0 0.0597,0 0.12397,0 0.19357,0 0.0693,0 0.13382,0 0.19336,0 0.85196,0 1.69954,0.0428 2.54225,0.12687 0.84195,0.0837 1.66032,0.33626 2.45308,0.75799 0.9115,0.48441 1.65525,1.20572 2.23009,2.16436 0.57506,0.95765 0.86214,1.98456 0.86214,3.07997 0,0.90555 -0.19811,1.76906 -0.59503,2.59051 -0.39566,0.82148 -1.00048,1.44266 -1.81322,1.86362 1.20949,0.40031 2.13606,1.11122 2.77993,2.13272 0.64441,1.02172 0.96653,2.19582 0.96653,3.52233 0,1.13765 -0.23315,2.18039 -0.69888,3.12819 -0.46575,0.94761 -1.12469,1.75866 -1.97755,2.43233 -0.69325,0.54791 -1.45659,0.92158 -2.28931,1.12166 -0.83234,0.20003 -1.67484,0.321 -2.52771,0.36306 -0.2177,0.0215 -0.43032,0.0319 -0.63932,0.0319 -0.20789,0 -0.42106,0 -0.63933,0 z m 4.07382,-14.3748 h 0.77297 c 0.0399,0.0215 0.0744,0.0319 0.10405,0.0319 0.0298,0 0.0546,0 0.0741,0 0.15852,0 0.32739,0 0.5055,0 0.1785,0 0.35716,-0.009 0.53531,-0.0319 0.27744,0 0.55017,-0.0262 0.8178,-0.0787 0.26764,-0.0525 0.51059,-0.13176 0.72831,-0.23729 0.39691,-0.18925 0.70414,-0.48404 0.92185,-0.88375 0.21826,-0.4009 0.32737,-0.82204 0.32737,-1.26441 0,-0.48383 -0.12923,-0.90556 -0.38658,-1.26323 -0.25783,-0.35826 -0.5852,-0.62121 -0.98104,-0.7902 -0.15905,-0.0837 -0.337,-0.14217 -0.53529,-0.17384 -0.19864,-0.0312 -0.40654,-0.0581 -0.62479,-0.0788 -0.0396,0 -0.0838,0 -0.13382,0 -0.0495,0 -0.10405,0 -0.16378,0 -0.0987,0 -0.20318,0 -0.31176,0 -0.10906,0 -0.21319,0 -0.31196,0 -0.0993,0.0208 -0.19864,0.0319 -0.29759,0.0319 -0.0994,0 -0.19865,0 -0.29743,0 h -0.74316 z m 0,10.1732 h 1.69428 c 0.59504,0.0208 1.17008,-0.0105 1.72533,-0.0951 0.5549,-0.0837 1.09999,-0.3162 1.63528,-0.69509 0.37622,-0.27338 0.64894,-0.59999 0.81726,-0.97947 0.16834,-0.3783 0.25276,-0.81102 0.25276,-1.29486 0,-0.56872 -0.12398,-1.04236 -0.37169,-1.42183 -0.24749,-0.37906 -0.60937,-0.7055 -1.0849,-0.97944 -0.43598,-0.23189 -0.88265,-0.36809 -1.33822,-0.41073 -0.45612,-0.0421 -0.92186,-0.0629 -1.39794,-0.0629 -0.0194,0 -0.0442,0 -0.0741,0 -0.0299,0 -0.0541,0 -0.0741,0 h -1.78397 z m 69.52035,-6.85867 c 0.32157,0.57529 0.48227,1.24837 0.48227,2.01678 0,1.18279 -0.33103,2.16726 -0.9934,2.95361 -0.66239,0.78865 -1.61819,1.25339 -2.86853,1.39346 v 2.02277 h -1.59296 v -2.01197 c -2.08557,-0.22744 -3.3755,-1.51519 -3.87264,-3.86129 l 2.46397,-0.68313 c 0.22789,1.47487 0.98396,2.21163 2.26716,2.21163 0.59974,0 1.04332,-0.15763 1.32585,-0.47246 0.28274,-0.31678 0.42363,-0.69683 0.42363,-1.14304 0,-0.46321 -0.14089,-0.81433 -0.42363,-1.05103 -0.28253,-0.23962 -0.91149,-0.54075 -1.88582,-0.90771 -0.87557,-0.32332 -1.56102,-0.64048 -2.05308,-0.95879 -0.49317,-0.31447 -0.89463,-0.75508 -1.20185,-1.32284 -0.30632,-0.56912 -0.46229,-1.23259 -0.46229,-1.9867 0,-0.98928 0.2769,-1.88115 0.82562,-2.67407 0.54981,-0.79019 1.4123,-1.27363 2.59308,-1.45038 v -1.56223 h 1.59296 v 1.56282 c 1.78089,0.22649 2.93445,1.29662 3.45773,3.21173 l -2.1945,0.95591 c -0.42835,-1.313 -1.08873,-1.96815 -1.98589,-1.96815 -0.45032,0 -0.81166,0.14603 -1.08329,0.43908 -0.27128,0.29419 -0.40873,0.64975 -0.40873,1.06704 0,0.42597 0.13134,0.7518 0.39475,0.981 0.26093,0.22592 0.824,0.50757 1.6852,0.84478 0.94655,0.36658 1.68919,0.71323 2.22592,1.04023 0.53856,0.3264 0.96817,0.77825 1.28847,1.35295 z" />
</svg>
